<mxfile host="app.diagrams.net" modified="2023-04-05T14:24:08.442Z" agent="Mozilla/5.0 (Macintosh; Intel Mac OS X 10_15_7) AppleWebKit/537.36 (KHTML, like Gecko) Chrome/111.0.0.0 Safari/537.36" etag="4F_FAbCxCVMv_jIyctSf" version="21.1.2" type="device">
  <diagram name="第 1 页" id="lLVXQVfyiyBHXDDwRLaL">
    <mxGraphModel dx="2056" dy="850" grid="0" gridSize="10" guides="1" tooltips="1" connect="1" arrows="1" fold="1" page="1" pageScale="1" pageWidth="1654" pageHeight="2336" math="0" shadow="0">
      <root>
        <mxCell id="0" />
        <mxCell id="1" parent="0" />
        <mxCell id="gw6mBz9omCqmBfA4A2pD-55" value="&lt;font style=&quot;font-size: 18px;&quot;&gt;进程&lt;/font&gt;" style="rounded=0;whiteSpace=wrap;html=1;" vertex="1" parent="1">
          <mxGeometry x="680" y="557" width="104" height="99" as="geometry" />
        </mxCell>
        <mxCell id="gw6mBz9omCqmBfA4A2pD-1" style="rounded=0;orthogonalLoop=1;jettySize=auto;html=1;exitX=1;exitY=0;exitDx=0;exitDy=0;entryX=0;entryY=0;entryDx=0;entryDy=0;" edge="1" parent="1" source="gw6mBz9omCqmBfA4A2pD-55" target="gw6mBz9omCqmBfA4A2pD-3">
          <mxGeometry relative="1" as="geometry">
            <mxPoint x="767" y="557.5" as="sourcePoint" />
            <mxPoint x="811" y="580" as="targetPoint" />
          </mxGeometry>
        </mxCell>
        <mxCell id="gw6mBz9omCqmBfA4A2pD-3" value="" style="rounded=0;whiteSpace=wrap;html=1;" vertex="1" parent="1">
          <mxGeometry x="873" y="557" width="120" height="130" as="geometry" />
        </mxCell>
        <mxCell id="gw6mBz9omCqmBfA4A2pD-4" value="&lt;font style=&quot;font-size: 20px;&quot;&gt;进程地址空间&lt;br&gt;&lt;font color=&quot;#0000ff&quot; face=&quot;Courier New&quot;&gt;mm_struct&lt;/font&gt;&lt;br&gt;&lt;/font&gt;" style="text;html=1;align=center;verticalAlign=middle;resizable=0;points=[];autosize=1;strokeColor=none;fillColor=none;" vertex="1" parent="1">
          <mxGeometry x="868" y="498" width="138" height="62" as="geometry" />
        </mxCell>
        <mxCell id="gw6mBz9omCqmBfA4A2pD-5" value="&lt;font face=&quot;Courier New&quot; style=&quot;font-size: 20px;&quot;&gt;task_struct&lt;/font&gt;" style="text;html=1;align=center;verticalAlign=middle;resizable=0;points=[];autosize=1;strokeColor=none;fillColor=none;" vertex="1" parent="1">
          <mxGeometry x="653" y="527" width="150" height="36" as="geometry" />
        </mxCell>
        <mxCell id="gw6mBz9omCqmBfA4A2pD-6" value="&lt;font style=&quot;font-size: 13px;&quot;&gt;命令行参数环境变量&lt;/font&gt;" style="rounded=0;whiteSpace=wrap;html=1;fontSize=13;" vertex="1" parent="1">
          <mxGeometry x="873" y="684" width="120" height="40" as="geometry" />
        </mxCell>
        <mxCell id="gw6mBz9omCqmBfA4A2pD-7" value="已初始化变量" style="rounded=0;whiteSpace=wrap;html=1;fontSize=17;" vertex="1" parent="1">
          <mxGeometry x="873" y="962" width="120" height="40" as="geometry" />
        </mxCell>
        <mxCell id="gw6mBz9omCqmBfA4A2pD-8" value="&lt;font style=&quot;font-size: 20px;&quot;&gt;栈区&lt;/font&gt;" style="rounded=0;whiteSpace=wrap;html=1;" vertex="1" parent="1">
          <mxGeometry x="873" y="722" width="120" height="40" as="geometry" />
        </mxCell>
        <mxCell id="gw6mBz9omCqmBfA4A2pD-81" style="rounded=0;orthogonalLoop=1;jettySize=auto;html=1;exitX=1;exitY=0.5;exitDx=0;exitDy=0;entryX=0;entryY=0.5;entryDx=0;entryDy=0;" edge="1" parent="1" source="gw6mBz9omCqmBfA4A2pD-10" target="gw6mBz9omCqmBfA4A2pD-40">
          <mxGeometry relative="1" as="geometry" />
        </mxCell>
        <mxCell id="gw6mBz9omCqmBfA4A2pD-9" value="&lt;font style=&quot;font-size: 17px;&quot;&gt;未初始化变量&lt;/font&gt;" style="rounded=0;whiteSpace=wrap;html=1;fontSize=17;" vertex="1" parent="1">
          <mxGeometry x="873" y="922" width="120" height="40" as="geometry" />
        </mxCell>
        <mxCell id="gw6mBz9omCqmBfA4A2pD-10" value="&lt;font style=&quot;font-size: 20px;&quot;&gt;堆区&lt;/font&gt;" style="rounded=0;whiteSpace=wrap;html=1;" vertex="1" parent="1">
          <mxGeometry x="873" y="882" width="120" height="40" as="geometry" />
        </mxCell>
        <mxCell id="gw6mBz9omCqmBfA4A2pD-11" value="&lt;font style=&quot;font-size: 20px;&quot;&gt;↑&lt;/font&gt;" style="rounded=0;whiteSpace=wrap;html=1;" vertex="1" parent="1">
          <mxGeometry x="873" y="842" width="120" height="40" as="geometry" />
        </mxCell>
        <mxCell id="gw6mBz9omCqmBfA4A2pD-80" style="rounded=0;orthogonalLoop=1;jettySize=auto;html=1;exitX=1;exitY=0.5;exitDx=0;exitDy=0;entryX=0;entryY=0.5;entryDx=0;entryDy=0;" edge="1" parent="1" source="gw6mBz9omCqmBfA4A2pD-12" target="gw6mBz9omCqmBfA4A2pD-37">
          <mxGeometry relative="1" as="geometry" />
        </mxCell>
        <mxCell id="gw6mBz9omCqmBfA4A2pD-12" value="&lt;font style=&quot;font-size: 17px;&quot;&gt;动态库(共享区)&lt;/font&gt;" style="rounded=0;whiteSpace=wrap;html=1;" vertex="1" parent="1">
          <mxGeometry x="873" y="802" width="120" height="40" as="geometry" />
        </mxCell>
        <mxCell id="gw6mBz9omCqmBfA4A2pD-13" value="&lt;font style=&quot;font-size: 20px;&quot;&gt;↓&lt;/font&gt;" style="rounded=0;whiteSpace=wrap;html=1;" vertex="1" parent="1">
          <mxGeometry x="873" y="762" width="120" height="40" as="geometry" />
        </mxCell>
        <mxCell id="gw6mBz9omCqmBfA4A2pD-82" style="rounded=0;orthogonalLoop=1;jettySize=auto;html=1;exitX=1;exitY=0.5;exitDx=0;exitDy=0;entryX=0;entryY=0.5;entryDx=0;entryDy=0;" edge="1" parent="1" source="gw6mBz9omCqmBfA4A2pD-14" target="gw6mBz9omCqmBfA4A2pD-44">
          <mxGeometry relative="1" as="geometry" />
        </mxCell>
        <mxCell id="gw6mBz9omCqmBfA4A2pD-14" value="&lt;font style=&quot;font-size: 20px;&quot;&gt;代码段&lt;/font&gt;" style="rounded=0;whiteSpace=wrap;html=1;" vertex="1" parent="1">
          <mxGeometry x="873" y="1002" width="120" height="40" as="geometry" />
        </mxCell>
        <mxCell id="gw6mBz9omCqmBfA4A2pD-15" value="&lt;font face=&quot;Times New Roman&quot; style=&quot;font-size: 20px;&quot;&gt;0&lt;/font&gt;" style="text;html=1;align=center;verticalAlign=middle;resizable=0;points=[];autosize=1;strokeColor=none;fillColor=none;fontSize=20;" vertex="1" parent="1">
          <mxGeometry x="1017" y="1014" width="28" height="37" as="geometry" />
        </mxCell>
        <mxCell id="gw6mBz9omCqmBfA4A2pD-16" value="&lt;font face=&quot;Times New Roman&quot; style=&quot;font-size: 20px;&quot;&gt;3G&lt;/font&gt;" style="text;html=1;align=center;verticalAlign=middle;resizable=0;points=[];autosize=1;strokeColor=none;fillColor=none;fontSize=20;" vertex="1" parent="1">
          <mxGeometry x="1010" y="663" width="42" height="37" as="geometry" />
        </mxCell>
        <mxCell id="gw6mBz9omCqmBfA4A2pD-17" value="&lt;font face=&quot;Times New Roman&quot; style=&quot;font-size: 20px;&quot;&gt;4G&lt;/font&gt;" style="text;html=1;align=center;verticalAlign=middle;resizable=0;points=[];autosize=1;strokeColor=none;fillColor=none;fontSize=20;" vertex="1" parent="1">
          <mxGeometry x="1010" y="538" width="42" height="37" as="geometry" />
        </mxCell>
        <mxCell id="gw6mBz9omCqmBfA4A2pD-18" value="" style="endArrow=classic;startArrow=classic;html=1;rounded=0;" edge="1" parent="1">
          <mxGeometry width="50" height="50" relative="1" as="geometry">
            <mxPoint x="1010" y="1041" as="sourcePoint" />
            <mxPoint x="1010" y="684" as="targetPoint" />
          </mxGeometry>
        </mxCell>
        <mxCell id="gw6mBz9omCqmBfA4A2pD-19" value="&lt;font face=&quot;Times New Roman&quot;&gt;用&lt;br&gt;户&lt;br&gt;空&lt;br&gt;间&lt;/font&gt;" style="text;html=1;align=center;verticalAlign=middle;resizable=0;points=[];autosize=1;strokeColor=none;fillColor=none;fontSize=20;" vertex="1" parent="1">
          <mxGeometry x="1012" y="791" width="38" height="110" as="geometry" />
        </mxCell>
        <mxCell id="gw6mBz9omCqmBfA4A2pD-20" value="" style="endArrow=classic;startArrow=classic;html=1;rounded=0;" edge="1" parent="1">
          <mxGeometry width="50" height="50" relative="1" as="geometry">
            <mxPoint x="1010" y="682" as="sourcePoint" />
            <mxPoint x="1010" y="555" as="targetPoint" />
          </mxGeometry>
        </mxCell>
        <mxCell id="gw6mBz9omCqmBfA4A2pD-21" value="&lt;font face=&quot;Times New Roman&quot;&gt;内&lt;br&gt;核&lt;br&gt;空&lt;br&gt;间&lt;/font&gt;" style="text;html=1;align=center;verticalAlign=middle;resizable=0;points=[];autosize=1;strokeColor=none;fillColor=none;fontSize=20;" vertex="1" parent="1">
          <mxGeometry x="1012" y="563" width="38" height="110" as="geometry" />
        </mxCell>
        <mxCell id="gw6mBz9omCqmBfA4A2pD-22" value="&lt;font color=&quot;#0000ff&quot; face=&quot;Courier New&quot; style=&quot;font-size: 20px;&quot;&gt;vm_area_struct&lt;/font&gt;" style="text;html=1;align=center;verticalAlign=middle;resizable=0;points=[];autosize=1;strokeColor=none;fillColor=none;" vertex="1" parent="1">
          <mxGeometry x="614" y="730" width="186" height="36" as="geometry" />
        </mxCell>
        <mxCell id="gw6mBz9omCqmBfA4A2pD-28" style="edgeStyle=orthogonalEdgeStyle;rounded=0;orthogonalLoop=1;jettySize=auto;html=1;exitX=0.25;exitY=1;exitDx=0;exitDy=0;entryX=0.25;entryY=0;entryDx=0;entryDy=0;" edge="1" parent="1" source="gw6mBz9omCqmBfA4A2pD-24" target="gw6mBz9omCqmBfA4A2pD-25">
          <mxGeometry relative="1" as="geometry" />
        </mxCell>
        <mxCell id="gw6mBz9omCqmBfA4A2pD-24" value="" style="rounded=0;whiteSpace=wrap;html=1;align=left;" vertex="1" parent="1">
          <mxGeometry x="672" y="766" width="120" height="60" as="geometry" />
        </mxCell>
        <mxCell id="gw6mBz9omCqmBfA4A2pD-29" style="edgeStyle=orthogonalEdgeStyle;rounded=0;orthogonalLoop=1;jettySize=auto;html=1;exitX=0.25;exitY=1;exitDx=0;exitDy=0;entryX=0.25;entryY=0;entryDx=0;entryDy=0;" edge="1" parent="1" source="gw6mBz9omCqmBfA4A2pD-25" target="gw6mBz9omCqmBfA4A2pD-26">
          <mxGeometry relative="1" as="geometry" />
        </mxCell>
        <mxCell id="gw6mBz9omCqmBfA4A2pD-30" style="edgeStyle=orthogonalEdgeStyle;rounded=0;orthogonalLoop=1;jettySize=auto;html=1;exitX=0.75;exitY=0;exitDx=0;exitDy=0;entryX=0.75;entryY=1;entryDx=0;entryDy=0;" edge="1" parent="1" source="gw6mBz9omCqmBfA4A2pD-25" target="gw6mBz9omCqmBfA4A2pD-24">
          <mxGeometry relative="1" as="geometry" />
        </mxCell>
        <mxCell id="gw6mBz9omCqmBfA4A2pD-25" value="" style="rounded=0;whiteSpace=wrap;html=1;align=left;" vertex="1" parent="1">
          <mxGeometry x="672" y="881" width="120" height="60" as="geometry" />
        </mxCell>
        <mxCell id="gw6mBz9omCqmBfA4A2pD-31" style="edgeStyle=orthogonalEdgeStyle;rounded=0;orthogonalLoop=1;jettySize=auto;html=1;exitX=0.75;exitY=0;exitDx=0;exitDy=0;entryX=0.75;entryY=1;entryDx=0;entryDy=0;" edge="1" parent="1" source="gw6mBz9omCqmBfA4A2pD-26" target="gw6mBz9omCqmBfA4A2pD-25">
          <mxGeometry relative="1" as="geometry" />
        </mxCell>
        <mxCell id="gw6mBz9omCqmBfA4A2pD-34" style="edgeStyle=orthogonalEdgeStyle;rounded=0;orthogonalLoop=1;jettySize=auto;html=1;exitX=0.25;exitY=1;exitDx=0;exitDy=0;entryX=0.25;entryY=0;entryDx=0;entryDy=0;" edge="1" parent="1" source="gw6mBz9omCqmBfA4A2pD-26" target="gw6mBz9omCqmBfA4A2pD-33">
          <mxGeometry relative="1" as="geometry" />
        </mxCell>
        <mxCell id="gw6mBz9omCqmBfA4A2pD-26" value="" style="rounded=0;whiteSpace=wrap;html=1;align=left;" vertex="1" parent="1">
          <mxGeometry x="672" y="996" width="120" height="60" as="geometry" />
        </mxCell>
        <mxCell id="gw6mBz9omCqmBfA4A2pD-35" style="edgeStyle=orthogonalEdgeStyle;rounded=0;orthogonalLoop=1;jettySize=auto;html=1;exitX=0.75;exitY=0;exitDx=0;exitDy=0;entryX=0.75;entryY=1;entryDx=0;entryDy=0;" edge="1" parent="1" source="gw6mBz9omCqmBfA4A2pD-33" target="gw6mBz9omCqmBfA4A2pD-26">
          <mxGeometry relative="1" as="geometry" />
        </mxCell>
        <mxCell id="gw6mBz9omCqmBfA4A2pD-33" value="&lt;div style=&quot;&quot;&gt;&lt;span style=&quot;font-size: 18px; font-family: &amp;quot;Courier New&amp;quot;; background-color: initial;&quot;&gt;...&lt;/span&gt;&lt;/div&gt;" style="rounded=0;whiteSpace=wrap;html=1;align=center;" vertex="1" parent="1">
          <mxGeometry x="672" y="1111" width="120" height="60" as="geometry" />
        </mxCell>
        <mxCell id="gw6mBz9omCqmBfA4A2pD-37" value="" style="rounded=0;whiteSpace=wrap;html=1;" vertex="1" parent="1">
          <mxGeometry x="1222" y="893" width="40" height="20" as="geometry" />
        </mxCell>
        <mxCell id="gw6mBz9omCqmBfA4A2pD-38" value="&lt;font style=&quot;font-size: 20px;&quot;&gt;&lt;font color=&quot;#0000ff&quot;&gt;用户&lt;/font&gt;级页表&lt;br&gt;&lt;/font&gt;" style="text;html=1;align=center;verticalAlign=middle;resizable=0;points=[];autosize=1;strokeColor=none;fillColor=none;" vertex="1" parent="1">
          <mxGeometry x="1202" y="853" width="120" height="40" as="geometry" />
        </mxCell>
        <mxCell id="gw6mBz9omCqmBfA4A2pD-51" style="rounded=0;orthogonalLoop=1;jettySize=auto;html=1;exitX=1;exitY=0;exitDx=0;exitDy=0;entryX=0;entryY=0;entryDx=0;entryDy=0;" edge="1" parent="1" source="gw6mBz9omCqmBfA4A2pD-39" target="gw6mBz9omCqmBfA4A2pD-48">
          <mxGeometry relative="1" as="geometry" />
        </mxCell>
        <mxCell id="gw6mBz9omCqmBfA4A2pD-39" value="" style="rounded=0;whiteSpace=wrap;html=1;" vertex="1" parent="1">
          <mxGeometry x="1262" y="893" width="40" height="20" as="geometry" />
        </mxCell>
        <mxCell id="gw6mBz9omCqmBfA4A2pD-40" value="" style="rounded=0;whiteSpace=wrap;html=1;" vertex="1" parent="1">
          <mxGeometry x="1222" y="913" width="40" height="20" as="geometry" />
        </mxCell>
        <mxCell id="gw6mBz9omCqmBfA4A2pD-41" value="" style="rounded=0;whiteSpace=wrap;html=1;" vertex="1" parent="1">
          <mxGeometry x="1262" y="913" width="40" height="20" as="geometry" />
        </mxCell>
        <mxCell id="gw6mBz9omCqmBfA4A2pD-42" value="" style="rounded=0;whiteSpace=wrap;html=1;" vertex="1" parent="1">
          <mxGeometry x="1222" y="933" width="40" height="20" as="geometry" />
        </mxCell>
        <mxCell id="gw6mBz9omCqmBfA4A2pD-43" value="" style="rounded=0;whiteSpace=wrap;html=1;" vertex="1" parent="1">
          <mxGeometry x="1262" y="933" width="40" height="20" as="geometry" />
        </mxCell>
        <mxCell id="gw6mBz9omCqmBfA4A2pD-44" value="" style="rounded=0;whiteSpace=wrap;html=1;" vertex="1" parent="1">
          <mxGeometry x="1222" y="953" width="40" height="20" as="geometry" />
        </mxCell>
        <mxCell id="gw6mBz9omCqmBfA4A2pD-45" value="" style="rounded=0;whiteSpace=wrap;html=1;" vertex="1" parent="1">
          <mxGeometry x="1262" y="953" width="40" height="20" as="geometry" />
        </mxCell>
        <mxCell id="gw6mBz9omCqmBfA4A2pD-46" value="&lt;span style=&quot;font-size: 20px;&quot;&gt;内核代码和数据&lt;/span&gt;" style="rounded=0;whiteSpace=wrap;html=1;" vertex="1" parent="1">
          <mxGeometry x="1458" y="740" width="120" height="80" as="geometry" />
        </mxCell>
        <mxCell id="gw6mBz9omCqmBfA4A2pD-47" value="&lt;font style=&quot;font-size: 20px;&quot;&gt;物理内存&lt;br&gt;&lt;/font&gt;" style="text;html=1;align=center;verticalAlign=middle;resizable=0;points=[];autosize=1;strokeColor=none;fillColor=none;" vertex="1" parent="1">
          <mxGeometry x="1468" y="700" width="100" height="40" as="geometry" />
        </mxCell>
        <mxCell id="gw6mBz9omCqmBfA4A2pD-48" value="&lt;font style=&quot;font-size: 20px;&quot;&gt;&lt;font color=&quot;#0000ff&quot;&gt;进程&lt;/font&gt;代码和数据&lt;/font&gt;" style="rounded=0;whiteSpace=wrap;html=1;" vertex="1" parent="1">
          <mxGeometry x="1458" y="900" width="120" height="80" as="geometry" />
        </mxCell>
        <mxCell id="gw6mBz9omCqmBfA4A2pD-49" value="&lt;span style=&quot;font-size: 20px;&quot;&gt;...&lt;/span&gt;" style="rounded=0;whiteSpace=wrap;html=1;" vertex="1" parent="1">
          <mxGeometry x="1458" y="820" width="120" height="80" as="geometry" />
        </mxCell>
        <mxCell id="gw6mBz9omCqmBfA4A2pD-72" style="edgeStyle=orthogonalEdgeStyle;rounded=0;orthogonalLoop=1;jettySize=auto;html=1;entryX=1;entryY=0;entryDx=0;entryDy=0;strokeColor=#FF0000;exitX=0;exitY=0.25;exitDx=0;exitDy=0;" edge="1" parent="1" source="gw6mBz9omCqmBfA4A2pD-59" target="gw6mBz9omCqmBfA4A2pD-62">
          <mxGeometry relative="1" as="geometry">
            <mxPoint x="873" y="570" as="sourcePoint" />
            <Array as="points">
              <mxPoint x="873" y="601" />
              <mxPoint x="792" y="601" />
            </Array>
          </mxGeometry>
        </mxCell>
        <mxCell id="gw6mBz9omCqmBfA4A2pD-59" value="&lt;font face=&quot;Courier New&quot; style=&quot;font-size: 15px;&quot;&gt;mmap&lt;/font&gt;" style="rounded=0;whiteSpace=wrap;html=1;" vertex="1" parent="1">
          <mxGeometry x="873" y="590" width="120" height="24" as="geometry" />
        </mxCell>
        <mxCell id="gw6mBz9omCqmBfA4A2pD-73" style="rounded=0;orthogonalLoop=1;jettySize=auto;html=1;exitX=1;exitY=0.25;exitDx=0;exitDy=0;entryX=0;entryY=1;entryDx=0;entryDy=0;" edge="1" parent="1" source="gw6mBz9omCqmBfA4A2pD-62" target="gw6mBz9omCqmBfA4A2pD-13">
          <mxGeometry relative="1" as="geometry" />
        </mxCell>
        <mxCell id="gw6mBz9omCqmBfA4A2pD-62" value="&lt;font face=&quot;Courier New&quot; style=&quot;font-size: 15px;&quot;&gt;start1&lt;/font&gt;" style="rounded=0;whiteSpace=wrap;html=1;" vertex="1" parent="1">
          <mxGeometry x="672" y="766" width="120" height="31.5" as="geometry" />
        </mxCell>
        <mxCell id="gw6mBz9omCqmBfA4A2pD-63" value="&lt;font face=&quot;Courier New&quot;&gt;&lt;span style=&quot;font-size: 15px;&quot;&gt;end1&lt;/span&gt;&lt;/font&gt;" style="rounded=0;whiteSpace=wrap;html=1;" vertex="1" parent="1">
          <mxGeometry x="672" y="794.5" width="120" height="31.5" as="geometry" />
        </mxCell>
        <mxCell id="gw6mBz9omCqmBfA4A2pD-78" style="rounded=0;orthogonalLoop=1;jettySize=auto;html=1;exitX=1;exitY=0.5;exitDx=0;exitDy=0;entryX=0;entryY=1;entryDx=0;entryDy=0;" edge="1" parent="1" source="gw6mBz9omCqmBfA4A2pD-66" target="gw6mBz9omCqmBfA4A2pD-14">
          <mxGeometry relative="1" as="geometry" />
        </mxCell>
        <mxCell id="gw6mBz9omCqmBfA4A2pD-66" value="&lt;font face=&quot;Courier New&quot;&gt;&lt;span style=&quot;font-size: 15px;&quot;&gt;end3&lt;/span&gt;&lt;/font&gt;" style="rounded=0;whiteSpace=wrap;html=1;" vertex="1" parent="1">
          <mxGeometry x="672" y="1024.5" width="120" height="31.5" as="geometry" />
        </mxCell>
        <mxCell id="gw6mBz9omCqmBfA4A2pD-75" style="rounded=0;orthogonalLoop=1;jettySize=auto;html=1;exitX=1;exitY=0.5;exitDx=0;exitDy=0;entryX=0;entryY=0;entryDx=0;entryDy=0;" edge="1" parent="1" source="gw6mBz9omCqmBfA4A2pD-68" target="gw6mBz9omCqmBfA4A2pD-10">
          <mxGeometry relative="1" as="geometry" />
        </mxCell>
        <mxCell id="gw6mBz9omCqmBfA4A2pD-68" value="&lt;font face=&quot;Courier New&quot; style=&quot;font-size: 15px;&quot;&gt;start2&lt;/font&gt;" style="rounded=0;whiteSpace=wrap;html=1;" vertex="1" parent="1">
          <mxGeometry x="672" y="881" width="120" height="31.5" as="geometry" />
        </mxCell>
        <mxCell id="gw6mBz9omCqmBfA4A2pD-77" style="rounded=0;orthogonalLoop=1;jettySize=auto;html=1;exitX=1;exitY=0.5;exitDx=0;exitDy=0;entryX=0;entryY=0;entryDx=0;entryDy=0;" edge="1" parent="1" source="gw6mBz9omCqmBfA4A2pD-69" target="gw6mBz9omCqmBfA4A2pD-14">
          <mxGeometry relative="1" as="geometry" />
        </mxCell>
        <mxCell id="gw6mBz9omCqmBfA4A2pD-69" value="&lt;font face=&quot;Courier New&quot; style=&quot;font-size: 15px;&quot;&gt;start3&lt;/font&gt;" style="rounded=0;whiteSpace=wrap;html=1;" vertex="1" parent="1">
          <mxGeometry x="672" y="996" width="120" height="31.5" as="geometry" />
        </mxCell>
        <mxCell id="gw6mBz9omCqmBfA4A2pD-76" style="rounded=0;orthogonalLoop=1;jettySize=auto;html=1;exitX=1;exitY=0.5;exitDx=0;exitDy=0;entryX=0;entryY=1;entryDx=0;entryDy=0;" edge="1" parent="1" source="gw6mBz9omCqmBfA4A2pD-70" target="gw6mBz9omCqmBfA4A2pD-10">
          <mxGeometry relative="1" as="geometry" />
        </mxCell>
        <mxCell id="gw6mBz9omCqmBfA4A2pD-70" value="&lt;font face=&quot;Courier New&quot;&gt;&lt;span style=&quot;font-size: 15px;&quot;&gt;end2&lt;/span&gt;&lt;/font&gt;" style="rounded=0;whiteSpace=wrap;html=1;" vertex="1" parent="1">
          <mxGeometry x="672" y="909.5" width="120" height="31.5" as="geometry" />
        </mxCell>
        <mxCell id="gw6mBz9omCqmBfA4A2pD-74" style="rounded=0;orthogonalLoop=1;jettySize=auto;html=1;exitX=1;exitY=0.5;exitDx=0;exitDy=0;entryX=0;entryY=0;entryDx=0;entryDy=0;" edge="1" parent="1" source="gw6mBz9omCqmBfA4A2pD-63" target="gw6mBz9omCqmBfA4A2pD-11">
          <mxGeometry relative="1" as="geometry">
            <mxPoint x="809" y="736" as="sourcePoint" />
            <mxPoint x="873" y="723" as="targetPoint" />
          </mxGeometry>
        </mxCell>
        <mxCell id="gw6mBz9omCqmBfA4A2pD-84" value="" style="rounded=0;whiteSpace=wrap;html=1;" vertex="1" parent="1">
          <mxGeometry x="967" y="1527" width="40" height="20" as="geometry" />
        </mxCell>
        <mxCell id="gw6mBz9omCqmBfA4A2pD-85" value="&lt;font style=&quot;font-size: 20px;&quot;&gt;页表&lt;br&gt;&lt;/font&gt;" style="text;html=1;align=center;verticalAlign=middle;resizable=0;points=[];autosize=1;strokeColor=none;fillColor=none;" vertex="1" parent="1">
          <mxGeometry x="978" y="1489" width="58" height="36" as="geometry" />
        </mxCell>
        <mxCell id="gw6mBz9omCqmBfA4A2pD-172" style="rounded=0;orthogonalLoop=1;jettySize=auto;html=1;exitX=1;exitY=0.5;exitDx=0;exitDy=0;entryX=0;entryY=0;entryDx=0;entryDy=0;" edge="1" parent="1" source="gw6mBz9omCqmBfA4A2pD-86" target="gw6mBz9omCqmBfA4A2pD-173">
          <mxGeometry relative="1" as="geometry" />
        </mxCell>
        <mxCell id="gw6mBz9omCqmBfA4A2pD-86" value="" style="rounded=0;whiteSpace=wrap;html=1;" vertex="1" parent="1">
          <mxGeometry x="1007" y="1527" width="40" height="20" as="geometry" />
        </mxCell>
        <mxCell id="gw6mBz9omCqmBfA4A2pD-87" value="" style="rounded=0;whiteSpace=wrap;html=1;" vertex="1" parent="1">
          <mxGeometry x="967" y="1547" width="40" height="20" as="geometry" />
        </mxCell>
        <mxCell id="gw6mBz9omCqmBfA4A2pD-179" style="rounded=0;orthogonalLoop=1;jettySize=auto;html=1;exitX=1;exitY=0.5;exitDx=0;exitDy=0;entryX=0;entryY=0;entryDx=0;entryDy=0;" edge="1" parent="1" source="gw6mBz9omCqmBfA4A2pD-88" target="gw6mBz9omCqmBfA4A2pD-174">
          <mxGeometry relative="1" as="geometry" />
        </mxCell>
        <mxCell id="gw6mBz9omCqmBfA4A2pD-88" value="" style="rounded=0;whiteSpace=wrap;html=1;" vertex="1" parent="1">
          <mxGeometry x="1007" y="1547" width="40" height="20" as="geometry" />
        </mxCell>
        <mxCell id="gw6mBz9omCqmBfA4A2pD-89" value="" style="rounded=0;whiteSpace=wrap;html=1;" vertex="1" parent="1">
          <mxGeometry x="967" y="1567" width="40" height="20" as="geometry" />
        </mxCell>
        <mxCell id="gw6mBz9omCqmBfA4A2pD-180" style="rounded=0;orthogonalLoop=1;jettySize=auto;html=1;exitX=1;exitY=0.5;exitDx=0;exitDy=0;entryX=0;entryY=0;entryDx=0;entryDy=0;" edge="1" parent="1" source="gw6mBz9omCqmBfA4A2pD-90" target="gw6mBz9omCqmBfA4A2pD-175">
          <mxGeometry relative="1" as="geometry" />
        </mxCell>
        <mxCell id="gw6mBz9omCqmBfA4A2pD-90" value="" style="rounded=0;whiteSpace=wrap;html=1;" vertex="1" parent="1">
          <mxGeometry x="1007" y="1567" width="40" height="20" as="geometry" />
        </mxCell>
        <mxCell id="gw6mBz9omCqmBfA4A2pD-91" value="" style="rounded=0;whiteSpace=wrap;html=1;" vertex="1" parent="1">
          <mxGeometry x="967" y="1587" width="40" height="20" as="geometry" />
        </mxCell>
        <mxCell id="gw6mBz9omCqmBfA4A2pD-181" style="rounded=0;orthogonalLoop=1;jettySize=auto;html=1;exitX=1;exitY=0.5;exitDx=0;exitDy=0;entryX=0;entryY=0;entryDx=0;entryDy=0;" edge="1" parent="1" source="gw6mBz9omCqmBfA4A2pD-92" target="gw6mBz9omCqmBfA4A2pD-176">
          <mxGeometry relative="1" as="geometry" />
        </mxCell>
        <mxCell id="gw6mBz9omCqmBfA4A2pD-92" value="" style="rounded=0;whiteSpace=wrap;html=1;" vertex="1" parent="1">
          <mxGeometry x="1007" y="1587" width="40" height="20" as="geometry" />
        </mxCell>
        <mxCell id="gw6mBz9omCqmBfA4A2pD-93" value="&lt;font style=&quot;font-size: 20px;&quot; face=&quot;Courier New&quot;&gt;虚拟地址：&lt;font color=&quot;#0000ff&quot;&gt;1101101101&lt;/font&gt; 1011011011 &lt;font color=&quot;#ff0000&quot;&gt;011011011011&lt;/font&gt;&lt;/font&gt;" style="text;html=1;strokeColor=none;fillColor=none;align=center;verticalAlign=middle;whiteSpace=wrap;rounded=0;" vertex="1" parent="1">
          <mxGeometry x="568" y="1352" width="686" height="30" as="geometry" />
        </mxCell>
        <mxCell id="gw6mBz9omCqmBfA4A2pD-94" value="&lt;font style=&quot;font-size: 17px;&quot; face=&quot;Courier New&quot;&gt;10位&amp;nbsp; &amp;nbsp; &amp;nbsp; &amp;nbsp; &amp;nbsp;10位&amp;nbsp; &amp;nbsp; &amp;nbsp; &amp;nbsp; &amp;nbsp; 12位&lt;/font&gt;" style="text;html=1;strokeColor=none;fillColor=none;align=left;verticalAlign=middle;whiteSpace=wrap;rounded=0;" vertex="1" parent="1">
          <mxGeometry x="800" y="1388" width="337" height="30" as="geometry" />
        </mxCell>
        <mxCell id="gw6mBz9omCqmBfA4A2pD-119" value="" style="group" vertex="1" connectable="0" parent="1">
          <mxGeometry x="632" y="1615" width="183" height="112" as="geometry" />
        </mxCell>
        <mxCell id="gw6mBz9omCqmBfA4A2pD-108" value="" style="rounded=0;whiteSpace=wrap;html=1;container=0;" vertex="1" parent="gw6mBz9omCqmBfA4A2pD-119">
          <mxGeometry width="91.5" height="28" as="geometry" />
        </mxCell>
        <mxCell id="gw6mBz9omCqmBfA4A2pD-110" value="" style="rounded=0;whiteSpace=wrap;html=1;container=0;" vertex="1" parent="gw6mBz9omCqmBfA4A2pD-119">
          <mxGeometry x="91.5" width="91.5" height="28" as="geometry" />
        </mxCell>
        <mxCell id="gw6mBz9omCqmBfA4A2pD-111" value="" style="rounded=0;whiteSpace=wrap;html=1;container=0;" vertex="1" parent="gw6mBz9omCqmBfA4A2pD-119">
          <mxGeometry y="28" width="91.5" height="28" as="geometry" />
        </mxCell>
        <mxCell id="gw6mBz9omCqmBfA4A2pD-112" value="" style="rounded=0;whiteSpace=wrap;html=1;container=0;" vertex="1" parent="gw6mBz9omCqmBfA4A2pD-119">
          <mxGeometry x="91.5" y="28" width="91.5" height="28" as="geometry" />
        </mxCell>
        <mxCell id="gw6mBz9omCqmBfA4A2pD-113" value="" style="rounded=0;whiteSpace=wrap;html=1;container=0;" vertex="1" parent="gw6mBz9omCqmBfA4A2pD-119">
          <mxGeometry y="56" width="91.5" height="28" as="geometry" />
        </mxCell>
        <mxCell id="gw6mBz9omCqmBfA4A2pD-114" value="" style="rounded=0;whiteSpace=wrap;html=1;container=0;" vertex="1" parent="gw6mBz9omCqmBfA4A2pD-119">
          <mxGeometry x="91.5" y="56" width="91.5" height="28" as="geometry" />
        </mxCell>
        <mxCell id="gw6mBz9omCqmBfA4A2pD-115" value="" style="rounded=0;whiteSpace=wrap;html=1;container=0;" vertex="1" parent="gw6mBz9omCqmBfA4A2pD-119">
          <mxGeometry y="84" width="91.5" height="28" as="geometry" />
        </mxCell>
        <mxCell id="gw6mBz9omCqmBfA4A2pD-116" value="" style="rounded=0;whiteSpace=wrap;html=1;container=0;" vertex="1" parent="gw6mBz9omCqmBfA4A2pD-119">
          <mxGeometry x="91.5" y="84" width="91.5" height="28" as="geometry" />
        </mxCell>
        <mxCell id="gw6mBz9omCqmBfA4A2pD-134" value="" style="rounded=0;whiteSpace=wrap;html=1;container=0;strokeColor=#B3B3B3;fillColor=none;" vertex="1" parent="1">
          <mxGeometry x="1166" y="1536" width="167" height="11" as="geometry" />
        </mxCell>
        <mxCell id="gw6mBz9omCqmBfA4A2pD-136" value="" style="rounded=0;whiteSpace=wrap;html=1;container=0;strokeColor=#B3B3B3;fillColor=none;" vertex="1" parent="1">
          <mxGeometry x="1166" y="1547" width="167" height="11" as="geometry" />
        </mxCell>
        <mxCell id="gw6mBz9omCqmBfA4A2pD-137" value="" style="rounded=0;whiteSpace=wrap;html=1;container=0;strokeColor=#B3B3B3;fillColor=none;" vertex="1" parent="1">
          <mxGeometry x="1166" y="1558" width="167" height="11" as="geometry" />
        </mxCell>
        <mxCell id="gw6mBz9omCqmBfA4A2pD-138" value="" style="rounded=0;whiteSpace=wrap;html=1;container=0;strokeColor=#B3B3B3;fillColor=none;" vertex="1" parent="1">
          <mxGeometry x="1166" y="1569" width="167" height="11" as="geometry" />
        </mxCell>
        <mxCell id="gw6mBz9omCqmBfA4A2pD-139" value="" style="rounded=0;whiteSpace=wrap;html=1;container=0;strokeColor=#B3B3B3;fillColor=none;" vertex="1" parent="1">
          <mxGeometry x="1166" y="1580" width="167" height="11" as="geometry" />
        </mxCell>
        <mxCell id="gw6mBz9omCqmBfA4A2pD-140" value="" style="rounded=0;whiteSpace=wrap;html=1;container=0;strokeColor=#B3B3B3;fillColor=none;" vertex="1" parent="1">
          <mxGeometry x="1166" y="1591" width="167" height="11" as="geometry" />
        </mxCell>
        <mxCell id="gw6mBz9omCqmBfA4A2pD-141" value="" style="rounded=0;whiteSpace=wrap;html=1;container=0;strokeColor=#B3B3B3;fillColor=none;" vertex="1" parent="1">
          <mxGeometry x="1166" y="1602" width="167" height="11" as="geometry" />
        </mxCell>
        <mxCell id="gw6mBz9omCqmBfA4A2pD-142" value="" style="rounded=0;whiteSpace=wrap;html=1;container=0;strokeColor=#B3B3B3;fillColor=none;" vertex="1" parent="1">
          <mxGeometry x="1166" y="1613" width="167" height="11" as="geometry" />
        </mxCell>
        <mxCell id="gw6mBz9omCqmBfA4A2pD-143" value="" style="rounded=0;whiteSpace=wrap;html=1;container=0;strokeColor=#B3B3B3;fillColor=none;" vertex="1" parent="1">
          <mxGeometry x="1166" y="1624" width="167" height="11" as="geometry" />
        </mxCell>
        <mxCell id="gw6mBz9omCqmBfA4A2pD-144" value="" style="rounded=0;whiteSpace=wrap;html=1;container=0;strokeColor=#B3B3B3;fillColor=none;" vertex="1" parent="1">
          <mxGeometry x="1166" y="1635" width="167" height="11" as="geometry" />
        </mxCell>
        <mxCell id="gw6mBz9omCqmBfA4A2pD-145" value="" style="rounded=0;whiteSpace=wrap;html=1;container=0;strokeColor=#B3B3B3;fillColor=none;" vertex="1" parent="1">
          <mxGeometry x="1166" y="1646" width="167" height="11" as="geometry" />
        </mxCell>
        <mxCell id="gw6mBz9omCqmBfA4A2pD-146" value="" style="rounded=0;whiteSpace=wrap;html=1;container=0;strokeColor=#B3B3B3;fillColor=none;" vertex="1" parent="1">
          <mxGeometry x="1166" y="1657" width="167" height="11" as="geometry" />
        </mxCell>
        <mxCell id="gw6mBz9omCqmBfA4A2pD-147" value="" style="rounded=0;whiteSpace=wrap;html=1;container=0;strokeColor=#B3B3B3;fillColor=none;" vertex="1" parent="1">
          <mxGeometry x="1166" y="1668" width="167" height="11" as="geometry" />
        </mxCell>
        <mxCell id="gw6mBz9omCqmBfA4A2pD-148" value="" style="rounded=0;whiteSpace=wrap;html=1;container=0;strokeColor=#B3B3B3;fillColor=none;" vertex="1" parent="1">
          <mxGeometry x="1166" y="1679" width="167" height="11" as="geometry" />
        </mxCell>
        <mxCell id="gw6mBz9omCqmBfA4A2pD-149" value="" style="rounded=0;whiteSpace=wrap;html=1;container=0;strokeColor=#B3B3B3;fillColor=none;" vertex="1" parent="1">
          <mxGeometry x="1166" y="1690" width="167" height="11" as="geometry" />
        </mxCell>
        <mxCell id="gw6mBz9omCqmBfA4A2pD-150" value="" style="rounded=0;whiteSpace=wrap;html=1;container=0;strokeColor=#B3B3B3;fillColor=none;" vertex="1" parent="1">
          <mxGeometry x="1166" y="1701" width="167" height="11" as="geometry" />
        </mxCell>
        <mxCell id="gw6mBz9omCqmBfA4A2pD-151" value="" style="rounded=0;whiteSpace=wrap;html=1;container=0;strokeColor=#B3B3B3;fillColor=none;" vertex="1" parent="1">
          <mxGeometry x="1166" y="1712" width="167" height="11" as="geometry" />
        </mxCell>
        <mxCell id="gw6mBz9omCqmBfA4A2pD-152" value="" style="rounded=0;whiteSpace=wrap;html=1;container=0;strokeColor=#B3B3B3;fillColor=none;" vertex="1" parent="1">
          <mxGeometry x="1166" y="1723" width="167" height="11" as="geometry" />
        </mxCell>
        <mxCell id="gw6mBz9omCqmBfA4A2pD-153" value="" style="rounded=0;whiteSpace=wrap;html=1;container=0;strokeColor=#B3B3B3;fillColor=none;" vertex="1" parent="1">
          <mxGeometry x="1166" y="1734" width="167" height="11" as="geometry" />
        </mxCell>
        <mxCell id="gw6mBz9omCqmBfA4A2pD-154" value="" style="rounded=0;whiteSpace=wrap;html=1;container=0;strokeColor=#B3B3B3;fillColor=none;" vertex="1" parent="1">
          <mxGeometry x="1166" y="1745" width="167" height="11" as="geometry" />
        </mxCell>
        <mxCell id="gw6mBz9omCqmBfA4A2pD-155" value="" style="rounded=0;whiteSpace=wrap;html=1;container=0;strokeColor=#B3B3B3;fillColor=none;" vertex="1" parent="1">
          <mxGeometry x="1166" y="1756" width="167" height="11" as="geometry" />
        </mxCell>
        <mxCell id="gw6mBz9omCqmBfA4A2pD-156" value="" style="rounded=0;whiteSpace=wrap;html=1;container=0;strokeColor=#B3B3B3;fillColor=none;" vertex="1" parent="1">
          <mxGeometry x="1166" y="1767" width="167" height="11" as="geometry" />
        </mxCell>
        <mxCell id="gw6mBz9omCqmBfA4A2pD-157" value="" style="rounded=0;whiteSpace=wrap;html=1;container=0;strokeColor=#B3B3B3;fillColor=none;" vertex="1" parent="1">
          <mxGeometry x="1166" y="1778" width="167" height="11" as="geometry" />
        </mxCell>
        <mxCell id="gw6mBz9omCqmBfA4A2pD-158" value="" style="rounded=0;whiteSpace=wrap;html=1;container=0;strokeColor=#B3B3B3;fillColor=none;" vertex="1" parent="1">
          <mxGeometry x="1166" y="1789" width="167" height="11" as="geometry" />
        </mxCell>
        <mxCell id="gw6mBz9omCqmBfA4A2pD-159" value="&lt;font style=&quot;font-size: 20px;&quot;&gt;物理内存&lt;br&gt;&lt;/font&gt;" style="text;html=1;align=center;verticalAlign=middle;resizable=0;points=[];autosize=1;strokeColor=none;fillColor=none;" vertex="1" parent="1">
          <mxGeometry x="1200.5" y="1500" width="98" height="36" as="geometry" />
        </mxCell>
        <mxCell id="gw6mBz9omCqmBfA4A2pD-160" value="&lt;font style=&quot;font-size: 20px;&quot;&gt;页目录&lt;br&gt;&lt;/font&gt;" style="text;html=1;align=center;verticalAlign=middle;resizable=0;points=[];autosize=1;strokeColor=none;fillColor=none;" vertex="1" parent="1">
          <mxGeometry x="684.5" y="1579" width="78" height="36" as="geometry" />
        </mxCell>
        <mxCell id="gw6mBz9omCqmBfA4A2pD-161" value="" style="rounded=0;whiteSpace=wrap;html=1;" vertex="1" parent="1">
          <mxGeometry x="967" y="1743.5" width="40" height="20" as="geometry" />
        </mxCell>
        <mxCell id="gw6mBz9omCqmBfA4A2pD-162" value="&lt;font style=&quot;font-size: 20px;&quot;&gt;页表&lt;br&gt;&lt;/font&gt;" style="text;html=1;align=center;verticalAlign=middle;resizable=0;points=[];autosize=1;strokeColor=none;fillColor=none;" vertex="1" parent="1">
          <mxGeometry x="978" y="1705.5" width="58" height="36" as="geometry" />
        </mxCell>
        <mxCell id="gw6mBz9omCqmBfA4A2pD-163" value="" style="rounded=0;whiteSpace=wrap;html=1;" vertex="1" parent="1">
          <mxGeometry x="1007" y="1743.5" width="40" height="20" as="geometry" />
        </mxCell>
        <mxCell id="gw6mBz9omCqmBfA4A2pD-164" value="" style="rounded=0;whiteSpace=wrap;html=1;" vertex="1" parent="1">
          <mxGeometry x="967" y="1763.5" width="40" height="20" as="geometry" />
        </mxCell>
        <mxCell id="gw6mBz9omCqmBfA4A2pD-165" value="" style="rounded=0;whiteSpace=wrap;html=1;" vertex="1" parent="1">
          <mxGeometry x="1007" y="1763.5" width="40" height="20" as="geometry" />
        </mxCell>
        <mxCell id="gw6mBz9omCqmBfA4A2pD-166" value="" style="rounded=0;whiteSpace=wrap;html=1;" vertex="1" parent="1">
          <mxGeometry x="967" y="1783.5" width="40" height="20" as="geometry" />
        </mxCell>
        <mxCell id="gw6mBz9omCqmBfA4A2pD-167" value="" style="rounded=0;whiteSpace=wrap;html=1;" vertex="1" parent="1">
          <mxGeometry x="1007" y="1783.5" width="40" height="20" as="geometry" />
        </mxCell>
        <mxCell id="gw6mBz9omCqmBfA4A2pD-168" value="" style="rounded=0;whiteSpace=wrap;html=1;" vertex="1" parent="1">
          <mxGeometry x="967" y="1803.5" width="40" height="20" as="geometry" />
        </mxCell>
        <mxCell id="gw6mBz9omCqmBfA4A2pD-169" value="" style="rounded=0;whiteSpace=wrap;html=1;" vertex="1" parent="1">
          <mxGeometry x="1007" y="1803.5" width="40" height="20" as="geometry" />
        </mxCell>
        <mxCell id="gw6mBz9omCqmBfA4A2pD-170" style="rounded=0;orthogonalLoop=1;jettySize=auto;html=1;exitX=1;exitY=0.5;exitDx=0;exitDy=0;entryX=0;entryY=0;entryDx=0;entryDy=0;" edge="1" parent="1" source="gw6mBz9omCqmBfA4A2pD-110" target="gw6mBz9omCqmBfA4A2pD-84">
          <mxGeometry relative="1" as="geometry" />
        </mxCell>
        <mxCell id="gw6mBz9omCqmBfA4A2pD-171" style="rounded=0;orthogonalLoop=1;jettySize=auto;html=1;exitX=1;exitY=0.5;exitDx=0;exitDy=0;entryX=0;entryY=0;entryDx=0;entryDy=0;" edge="1" parent="1" source="gw6mBz9omCqmBfA4A2pD-112" target="gw6mBz9omCqmBfA4A2pD-161">
          <mxGeometry relative="1" as="geometry" />
        </mxCell>
        <mxCell id="gw6mBz9omCqmBfA4A2pD-173" value="" style="rounded=0;whiteSpace=wrap;html=1;container=0;fillColor=none;" vertex="1" parent="1">
          <mxGeometry x="1166" y="1536" width="167" height="44" as="geometry" />
        </mxCell>
        <mxCell id="gw6mBz9omCqmBfA4A2pD-174" value="" style="rounded=0;whiteSpace=wrap;html=1;container=0;fillColor=none;" vertex="1" parent="1">
          <mxGeometry x="1166" y="1580" width="167" height="44" as="geometry" />
        </mxCell>
        <mxCell id="gw6mBz9omCqmBfA4A2pD-175" value="" style="rounded=0;whiteSpace=wrap;html=1;container=0;fillColor=none;" vertex="1" parent="1">
          <mxGeometry x="1166" y="1624" width="167" height="44" as="geometry" />
        </mxCell>
        <mxCell id="gw6mBz9omCqmBfA4A2pD-176" value="" style="rounded=0;whiteSpace=wrap;html=1;container=0;fillColor=none;" vertex="1" parent="1">
          <mxGeometry x="1166" y="1668" width="167" height="44" as="geometry" />
        </mxCell>
        <mxCell id="gw6mBz9omCqmBfA4A2pD-177" value="" style="rounded=0;whiteSpace=wrap;html=1;container=0;fillColor=none;" vertex="1" parent="1">
          <mxGeometry x="1166" y="1712" width="167" height="44" as="geometry" />
        </mxCell>
        <mxCell id="gw6mBz9omCqmBfA4A2pD-178" value="" style="rounded=0;whiteSpace=wrap;html=1;container=0;fillColor=none;" vertex="1" parent="1">
          <mxGeometry x="1166" y="1756" width="167" height="44" as="geometry" />
        </mxCell>
        <mxCell id="gw6mBz9omCqmBfA4A2pD-182" value="&lt;font style=&quot;font-size: 20px;&quot;&gt;页(4KB)&lt;br&gt;&lt;/font&gt;" style="text;html=1;align=center;verticalAlign=middle;resizable=0;points=[];autosize=1;strokeColor=none;fillColor=none;" vertex="1" parent="1">
          <mxGeometry x="1336" y="1540" width="89" height="36" as="geometry" />
        </mxCell>
        <mxCell id="gw6mBz9omCqmBfA4A2pD-184" value="&lt;font style=&quot;&quot;&gt;&lt;font face=&quot;Courier New&quot; style=&quot;font-size: 55px;&quot;&gt;}&lt;/font&gt;&lt;br&gt;&lt;/font&gt;" style="text;html=1;align=center;verticalAlign=middle;resizable=0;points=[];autosize=1;strokeColor=none;fillColor=none;" vertex="1" parent="1">
          <mxGeometry x="1314" y="1518" width="51" height="78" as="geometry" />
        </mxCell>
        <mxCell id="gw6mBz9omCqmBfA4A2pD-186" value="" style="endArrow=classic;html=1;rounded=0;" edge="1" parent="1">
          <mxGeometry width="50" height="50" relative="1" as="geometry">
            <mxPoint x="815" y="1424" as="sourcePoint" />
            <mxPoint x="734" y="1568" as="targetPoint" />
          </mxGeometry>
        </mxCell>
        <mxCell id="gw6mBz9omCqmBfA4A2pD-187" value="" style="endArrow=classic;html=1;rounded=0;" edge="1" parent="1">
          <mxGeometry width="50" height="50" relative="1" as="geometry">
            <mxPoint x="947" y="1423" as="sourcePoint" />
            <mxPoint x="966" y="1522" as="targetPoint" />
          </mxGeometry>
        </mxCell>
        <mxCell id="gw6mBz9omCqmBfA4A2pD-188" value="" style="endArrow=classic;html=1;rounded=0;" edge="1" parent="1">
          <mxGeometry width="50" height="50" relative="1" as="geometry">
            <mxPoint x="1096" y="1419" as="sourcePoint" />
            <mxPoint x="1165" y="1529" as="targetPoint" />
          </mxGeometry>
        </mxCell>
        <mxCell id="gw6mBz9omCqmBfA4A2pD-190" value="&lt;font style=&quot;font-size: 20px;&quot;&gt;一级页表&lt;br&gt;&lt;/font&gt;" style="text;html=1;align=center;verticalAlign=middle;resizable=0;points=[];autosize=1;strokeColor=none;fillColor=none;" vertex="1" parent="1">
          <mxGeometry x="674.5" y="1853" width="98" height="36" as="geometry" />
        </mxCell>
        <mxCell id="gw6mBz9omCqmBfA4A2pD-191" value="&lt;font style=&quot;font-size: 20px;&quot;&gt;二级页表&lt;br&gt;&lt;/font&gt;" style="text;html=1;align=center;verticalAlign=middle;resizable=0;points=[];autosize=1;strokeColor=none;fillColor=none;" vertex="1" parent="1">
          <mxGeometry x="958" y="1853" width="98" height="36" as="geometry" />
        </mxCell>
        <mxCell id="gw6mBz9omCqmBfA4A2pD-192" value="&lt;font style=&quot;font-size: 20px;&quot;&gt;偏移量&lt;br&gt;&lt;/font&gt;" style="text;html=1;align=center;verticalAlign=middle;resizable=0;points=[];autosize=1;strokeColor=none;fillColor=none;" vertex="1" parent="1">
          <mxGeometry x="1128" y="1441" width="78" height="36" as="geometry" />
        </mxCell>
      </root>
    </mxGraphModel>
  </diagram>
</mxfile>
